<?plantuml 1.2026.2?><svg xmlns="http://www.w3.org/2000/svg" xmlns:xlink="http://www.w3.org/1999/xlink" contentStyleType="text/css" data-diagram-type="CLASS" height="119px" preserveAspectRatio="none" style="width:196px;height:119px;background:#FFFFFF;" version="1.1" viewBox="0 0 196 119" width="196px" zoomAndPan="magnify"><defs/><g><!--class annotation--><g class="entity" data-qualified-name="annotation" data-source-line="4" id="ent0002"><rect fill="#F1F1F1" height="32" rx="2.5" ry="2.5" style="stroke:#181818;stroke-width:0.5;" width="97.3926" x="59.5" y="80"/><ellipse cx="74.5" cy="96" fill="#ADD1B2" rx="11" ry="11" style="stroke:#181818;stroke-width:1;"/><path d="M77.2656,91.875 Q77.4219,91.6563 77.6094,91.5469 Q77.7969,91.4375 78.0156,91.4375 Q78.3906,91.4375 78.625,91.7031 Q78.8594,91.9531 78.8594,92.5625 L78.8594,94.0156 Q78.8594,94.625 78.625,94.8906 Q78.3906,95.1563 78.0156,95.1563 Q77.6719,95.1563 77.4688,94.9531 Q77.2656,94.7656 77.1563,94.25 Q77.1094,93.8906 76.9219,93.7031 Q76.5938,93.3281 75.9844,93.1094 Q75.375,92.8906 74.75,92.8906 Q73.9844,92.8906 73.3438,93.2188 Q72.7188,93.5469 72.2188,94.2969 Q71.7344,95.0469 71.7344,96.0781 L71.7344,97.1719 Q71.7344,98.4063 72.625,99.2344 Q73.5156,100.0469 75.1094,100.0469 Q76.0469,100.0469 76.7031,99.7969 Q77.0938,99.6406 77.5156,99.2031 Q77.7813,98.9375 77.9219,98.8594 Q78.0781,98.7813 78.2813,98.7813 Q78.6094,98.7813 78.8594,99.0469 Q79.125,99.2969 79.125,99.6406 Q79.125,99.9844 78.7813,100.3906 Q78.2813,100.9688 77.4844,101.2969 Q76.4063,101.75 75.1094,101.75 Q73.5938,101.75 72.3906,101.125 Q71.4063,100.625 70.7188,99.5625 Q70.0313,98.4844 70.0313,97.2031 L70.0313,96.0469 Q70.0313,94.7188 70.6406,93.5781 Q71.2656,92.4219 72.3594,91.8125 Q73.4531,91.1875 74.6875,91.1875 Q75.4219,91.1875 76.0625,91.3594 Q76.7188,91.5156 77.2656,91.875 Z " fill="#000000"/><text fill="#000000" font-family="sans-serif" font-size="14" lengthAdjust="spacing" textLength="65.3926" x="88.5" y="101.7285">annotation</text></g><!--class dog--><g class="entity" data-qualified-name="dog" data-source-line="5" id="ent0003"><rect fill="#F1F1F1" height="32" rx="2.5" ry="2.5" style="stroke:#181818;stroke-width:0.5;" width="55.3584" x="134.5" y="12"/><ellipse cx="149.5" cy="28" fill="#ADD1B2" rx="11" ry="11" style="stroke:#181818;stroke-width:1;"/><path d="M152.2656,23.875 Q152.4219,23.6563 152.6094,23.5469 Q152.7969,23.4375 153.0156,23.4375 Q153.3906,23.4375 153.625,23.7031 Q153.8594,23.9531 153.8594,24.5625 L153.8594,26.0156 Q153.8594,26.625 153.625,26.8906 Q153.3906,27.1563 153.0156,27.1563 Q152.6719,27.1563 152.4688,26.9531 Q152.2656,26.7656 152.1563,26.25 Q152.1094,25.8906 151.9219,25.7031 Q151.5938,25.3281 150.9844,25.1094 Q150.375,24.8906 149.75,24.8906 Q148.9844,24.8906 148.3438,25.2188 Q147.7188,25.5469 147.2188,26.2969 Q146.7344,27.0469 146.7344,28.0781 L146.7344,29.1719 Q146.7344,30.4063 147.625,31.2344 Q148.5156,32.0469 150.1094,32.0469 Q151.0469,32.0469 151.7031,31.7969 Q152.0938,31.6406 152.5156,31.2031 Q152.7813,30.9375 152.9219,30.8594 Q153.0781,30.7813 153.2813,30.7813 Q153.6094,30.7813 153.8594,31.0469 Q154.125,31.2969 154.125,31.6406 Q154.125,31.9844 153.7813,32.3906 Q153.2813,32.9688 152.4844,33.2969 Q151.4063,33.75 150.1094,33.75 Q148.5938,33.75 147.3906,33.125 Q146.4063,32.625 145.7188,31.5625 Q145.0313,30.4844 145.0313,29.2031 L145.0313,28.0469 Q145.0313,26.7188 145.6406,25.5781 Q146.2656,24.4219 147.3594,23.8125 Q148.4531,23.1875 149.6875,23.1875 Q150.4219,23.1875 151.0625,23.3594 Q151.7188,23.5156 152.2656,23.875 Z " fill="#000000"/><text fill="#000000" font-family="sans-serif" font-size="14" lengthAdjust="spacing" textLength="23.3584" x="163.5" y="33.7285">dog</text></g><!--class chases--><g class="entity" data-qualified-name="chases" data-source-line="6" id="ent0004"><rect fill="#F1F1F1" height="32" rx="2.5" ry="2.5" style="stroke:#181818;stroke-width:0.5;" width="76.3584" x="6" y="12"/><ellipse cx="21" cy="28" fill="#ADD1B2" rx="11" ry="11" style="stroke:#181818;stroke-width:1;"/><path d="M23.7656,23.875 Q23.9219,23.6563 24.1094,23.5469 Q24.2969,23.4375 24.5156,23.4375 Q24.8906,23.4375 25.125,23.7031 Q25.3594,23.9531 25.3594,24.5625 L25.3594,26.0156 Q25.3594,26.625 25.125,26.8906 Q24.8906,27.1563 24.5156,27.1563 Q24.1719,27.1563 23.9688,26.9531 Q23.7656,26.7656 23.6563,26.25 Q23.6094,25.8906 23.4219,25.7031 Q23.0938,25.3281 22.4844,25.1094 Q21.875,24.8906 21.25,24.8906 Q20.4844,24.8906 19.8438,25.2188 Q19.2188,25.5469 18.7188,26.2969 Q18.2344,27.0469 18.2344,28.0781 L18.2344,29.1719 Q18.2344,30.4063 19.125,31.2344 Q20.0156,32.0469 21.6094,32.0469 Q22.5469,32.0469 23.2031,31.7969 Q23.5938,31.6406 24.0156,31.2031 Q24.2813,30.9375 24.4219,30.8594 Q24.5781,30.7813 24.7813,30.7813 Q25.1094,30.7813 25.3594,31.0469 Q25.625,31.2969 25.625,31.6406 Q25.625,31.9844 25.2813,32.3906 Q24.7813,32.9688 23.9844,33.2969 Q22.9063,33.75 21.6094,33.75 Q20.0938,33.75 18.8906,33.125 Q17.9063,32.625 17.2188,31.5625 Q16.5313,30.4844 16.5313,29.2031 L16.5313,28.0469 Q16.5313,26.7188 17.1406,25.5781 Q17.7656,24.4219 18.8594,23.8125 Q19.9531,23.1875 21.1875,23.1875 Q21.9219,23.1875 22.5625,23.3594 Q23.2188,23.5156 23.7656,23.875 Z " fill="#000000"/><text fill="#000000" font-family="sans-serif" font-size="14" lengthAdjust="spacing" textLength="44.3584" x="35" y="33.7285">chases</text></g><ellipse cx="102" cy="18" fill="#181818" rx="2" ry="2" style="stroke:#181818;stroke-width:1;"/><g class="link" data-entity-1="ent0004" data-entity-2="ent0008" data-link-type="dependency" id="lnk9"><polygon fill="#181818" points="82.5,28,91.5,32,87.5,28,91.5,24,82.5,28" style="stroke:#181818;stroke-width:1;"/><path d="M88.5,28 C94.2109,28 93.9219,28 99.6328,28" fill="none" style="stroke:#181818;stroke-width:1;"/></g><g class="link" data-entity-1="ent0008" data-entity-2="ent0003" data-link-type="association" id="lnk10"><path d="M116.0156,28 C122.1229,28 128.2302,28 134.3375,28" fill="none" style="stroke:#181818;stroke-width:1;"/></g><g class="link" data-entity-1="ent0008" data-entity-2="ent0002" data-link-type="association" id="lnk11"><path d="M108,40.196 C108,51.0821 108,67.6982 108,79.7806" fill="none" style="stroke:#181818;stroke-width:1;stroke-dasharray:7,7;"/></g><?plantuml-src JOmx3e0m34FtdY9i8057u2w6Xe_Kj8Y4eRT7b0vCjf-Ut9mNDW45v7GRgR0Xmks7Ps8vBPEmp7ofSqk0AY76PB0ZnGfyscfRTYY_OaaQ0gysJ4LeFzQ_ewFnz_80?></g></svg>