<?plantuml 1.2026.2?><svg xmlns="http://www.w3.org/2000/svg" xmlns:xlink="http://www.w3.org/1999/xlink" contentStyleType="text/css" data-diagram-type="DESCRIPTION" height="312px" preserveAspectRatio="none" style="width:81px;height:312px;background:#FFFFFF;" version="1.1" viewBox="0 0 81 312" width="81px" zoomAndPan="magnify"><defs/><g><!--entity Web--><g class="entity" data-qualified-name="Web" data-source-line="1" id="ent0002"><rect fill="#F1F1F1" height="47.6094" rx="2.5" ry="2.5" style="stroke:#181818;stroke-width:0.5;" width="68.7861" x="7" y="7"/><rect fill="#F1F1F1" height="10" style="stroke:#181818;stroke-width:0.5;" width="15" x="55.7861" y="12"/><rect fill="#F1F1F1" height="2" style="stroke:#181818;stroke-width:0.5;" width="4" x="53.7861" y="14"/><rect fill="#F1F1F1" height="2" style="stroke:#181818;stroke-width:0.5;" width="4" x="53.7861" y="18"/><text fill="#000000" font-family="sans-serif" font-size="14" lengthAdjust="spacing" textLength="28.7861" x="22" y="41.5332">Web</text></g><!--entity API--><g class="entity" data-qualified-name="API" data-source-line="2" id="ent0003"><rect fill="#F1F1F1" height="47.6094" rx="2.5" ry="2.5" style="stroke:#181818;stroke-width:0.5;" width="62.5654" x="10" y="133"/><rect fill="#F1F1F1" height="10" style="stroke:#181818;stroke-width:0.5;" width="15" x="52.5654" y="138"/><rect fill="#F1F1F1" height="2" style="stroke:#181818;stroke-width:0.5;" width="4" x="50.5654" y="140"/><rect fill="#F1F1F1" height="2" style="stroke:#181818;stroke-width:0.5;" width="4" x="50.5654" y="144"/><text fill="#000000" font-family="sans-serif" font-size="14" lengthAdjust="spacing" textLength="22.5654" x="25" y="167.5332">API</text></g><!--entity DB--><g class="entity" data-qualified-name="DB" data-source-line="3" id="ent0004"><rect fill="#F1F1F1" height="47.6094" rx="2.5" ry="2.5" style="stroke:#181818;stroke-width:0.5;" width="59.4482" x="12" y="259"/><rect fill="#F1F1F1" height="10" style="stroke:#181818;stroke-width:0.5;" width="15" x="51.4482" y="264"/><rect fill="#F1F1F1" height="2" style="stroke:#181818;stroke-width:0.5;" width="4" x="49.4482" y="266"/><rect fill="#F1F1F1" height="2" style="stroke:#181818;stroke-width:0.5;" width="4" x="49.4482" y="270"/><text fill="#000000" font-family="sans-serif" font-size="14" lengthAdjust="spacing" textLength="19.4482" x="27" y="293.5332">DB</text></g><!--link Web to API--><g class="link" data-entity-1="ent0002" data-entity-2="ent0003" data-link-type="dependency" data-source-line="4" id="lnk5"><path d="M41.5,55.03 C41.5,77.17 41.5,104.44 41.5,126.67" fill="none" id="Web-to-API" style="stroke:#181818;stroke-width:1;"/><polygon fill="#181818" points="41.5,132.67,45.5,123.67,41.5,127.67,37.5,123.67,41.5,132.67" style="stroke:#181818;stroke-width:1;"/><text fill="#000000" font-family="sans-serif" font-size="13" lengthAdjust="spacing" textLength="21.6836" x="42.5" y="99.4951">http</text></g><!--link API to DB--><g class="link" data-entity-1="ent0003" data-entity-2="ent0004" data-link-type="dependency" data-source-line="5" id="lnk6"><path d="M41.5,181.03 C41.5,203.17 41.5,230.44 41.5,252.67" fill="none" id="API-to-DB" style="stroke:#181818;stroke-width:1;"/><polygon fill="#181818" points="41.5,258.67,45.5,249.67,41.5,253.67,37.5,249.67,41.5,258.67" style="stroke:#181818;stroke-width:1;"/><text fill="#000000" font-family="sans-serif" font-size="13" lengthAdjust="spacing" textLength="16.6182" x="42.5" y="225.4951">sql</text></g><?plantuml-src IyxFBSZFIyqhKGXFJU9AXlCS0poHU2vEN41f1LrTEv24WfL2Hab90HU82H9oSGAA51Vc0000?></g></svg>