<svg xmlns="http://www.w3.org/2000/svg" xmlns:xlink="http://www.w3.org/1999/xlink" version="1.1" data-diagram-type="CLASS" style="width:106px;height:237px;background:#FFFFFF;" width="106px" height="237px" viewBox="0 0 106 237" zoomAndPan="magnify" preserveAspectRatio="none" contentStyleType="text/css"><?plantuml 1.2026.8?><defs/><g font-family="sans-serif" lengthAdjust="spacing"><rect x="5" y="10" width="90" height="211.219" fill="#FFF" style="stroke:#181818;stroke-width:1.5;"/><path d="M85,10 L85,20.609 L75,30.609 L5,30.609" style="stroke:#181818;stroke-width:1.5;" fill="none"/><text x="8" y="25.533" fill="#000" font-size="14" textLength="70">クラスの枠</text><!--class Foo--><g class="entity" data-qualified-name="Foo" id="ent0001" data-source-line="2"><rect x="11" y="46.609" width="56.124" height="48" fill="#F1F1F1" style="stroke:#181818;stroke-width:0.5;" rx="2.5" ry="2.5"/><ellipse cx="26" cy="62.609" rx="11" ry="11" fill="#ADD1B2" style="stroke:#181818;stroke-width:1;"/><path d="M28.766,58.484 Q28.922,58.266 29.109,58.156 Q29.297,58.047 29.516,58.047 Q29.891,58.047 30.125,58.313 Q30.359,58.563 30.359,59.172 L30.359,60.625 Q30.359,61.234 30.125,61.5 Q29.891,61.766 29.516,61.766 Q29.172,61.766 28.969,61.563 Q28.766,61.375 28.656,60.859 Q28.609,60.5 28.422,60.313 Q28.094,59.938 27.484,59.719 Q26.875,59.5 26.25,59.5 Q25.484,59.5 24.844,59.828 Q24.219,60.156 23.719,60.906 Q23.234,61.656 23.234,62.688 L23.234,63.781 Q23.234,65.016 24.125,65.844 Q25.016,66.656 26.609,66.656 Q27.547,66.656 28.203,66.406 Q28.594,66.25 29.016,65.813 Q29.281,65.547 29.422,65.469 Q29.578,65.391 29.781,65.391 Q30.109,65.391 30.359,65.656 Q30.625,65.906 30.625,66.25 Q30.625,66.594 30.281,67 Q29.781,67.578 28.984,67.906 Q27.906,68.359 26.609,68.359 Q25.094,68.359 23.891,67.734 Q22.906,67.234 22.219,66.172 Q21.531,65.094 21.531,63.813 L21.531,62.656 Q21.531,61.328 22.141,60.188 Q22.766,59.031 23.859,58.422 Q24.953,57.797 26.188,57.797 Q26.922,57.797 27.563,57.969 Q28.219,58.125 28.766,58.484 Z " fill="#000"/><text x="40" y="68.338" fill="#000" font-size="14" textLength="24.124">Foo</text><line x1="12" y1="78.609" x2="66.124" y2="78.609" style="stroke:#181818;stroke-width:0.5;"/><line x1="12" y1="86.609" x2="66.124" y2="86.609" style="stroke:#181818;stroke-width:0.5;"/></g><!--class Bar--><g class="entity" data-qualified-name="Bar" id="ent0002" data-source-line="3"><rect x="12" y="154.609" width="53.786" height="48" fill="#F1F1F1" style="stroke:#181818;stroke-width:0.5;" rx="2.5" ry="2.5"/><ellipse cx="27" cy="170.609" rx="11" ry="11" fill="#ADD1B2" style="stroke:#181818;stroke-width:1;"/><path d="M29.766,166.484 Q29.922,166.266 30.109,166.156 Q30.297,166.047 30.516,166.047 Q30.891,166.047 31.125,166.313 Q31.359,166.563 31.359,167.172 L31.359,168.625 Q31.359,169.234 31.125,169.5 Q30.891,169.766 30.516,169.766 Q30.172,169.766 29.969,169.563 Q29.766,169.375 29.656,168.859 Q29.609,168.5 29.422,168.313 Q29.094,167.938 28.484,167.719 Q27.875,167.5 27.25,167.5 Q26.484,167.5 25.844,167.828 Q25.219,168.156 24.719,168.906 Q24.234,169.656 24.234,170.688 L24.234,171.781 Q24.234,173.016 25.125,173.844 Q26.016,174.656 27.609,174.656 Q28.547,174.656 29.203,174.406 Q29.594,174.25 30.016,173.813 Q30.281,173.547 30.422,173.469 Q30.578,173.391 30.781,173.391 Q31.109,173.391 31.359,173.656 Q31.625,173.906 31.625,174.25 Q31.625,174.594 31.281,175 Q30.781,175.578 29.984,175.906 Q28.906,176.359 27.609,176.359 Q26.094,176.359 24.891,175.734 Q23.906,175.234 23.219,174.172 Q22.531,173.094 22.531,171.813 L22.531,170.656 Q22.531,169.328 23.141,168.188 Q23.766,167.031 24.859,166.422 Q25.953,165.797 27.188,165.797 Q27.922,165.797 28.563,165.969 Q29.219,166.125 29.766,166.484 Z " fill="#000"/><text x="41" y="176.338" fill="#000" font-size="14" textLength="21.786">Bar</text><line x1="13" y1="186.609" x2="64.786" y2="186.609" style="stroke:#181818;stroke-width:0.5;"/><line x1="13" y1="194.609" x2="64.786" y2="194.609" style="stroke:#181818;stroke-width:0.5;"/></g><!--link Foo to Bar--><g class="link" data-entity-1="ent0001" data-entity-2="ent0002" id="lnk3" data-source-line="4" data-link-type="dependency"><path d="M39,94.609 C39,112.269 39,131.549 39,149.289" style="stroke:#181818;stroke-width:1;" fill="none" id="Foo-to-Bar" codeLine="4"/><polygon points="39,154.289,43,145.289,39,149.289,35,145.289,39,154.289" fill="#181818" style="stroke:#181818;stroke-width:1;stroke-linejoin:miter;stroke-miterlimit:10;"/></g><?plantuml-src oqtCp4ihIinDLNZSjFvnyyh7JJiVDwvxDcy1Lt9EOd6nWbj-FfJbb5Z41UGfwEhQWTW0?></g></svg>