<svg xmlns="http://www.w3.org/2000/svg" xmlns:xlink="http://www.w3.org/1999/xlink" version="1.1" data-diagram-type="STATE" style="width:175px;height:71px;background:#FFFFFF;" width="175px" height="71px" viewBox="0 0 175 71" zoomAndPan="magnify" preserveAspectRatio="none" contentStyleType="text/css"><?plantuml 1.2026.8?><defs/><g font-family="sans-serif" lengthAdjust="spacing"><g class="entity" data-qualified-name="S" id="ent0001" data-source-line="2"><rect x="7" y="7" width="50" height="50" fill="#F1F1F1" style="stroke:#181818;stroke-width:0.5;" rx="4" ry="4"/><line x1="7" y1="34.609" x2="57" y2="34.609" style="stroke:#181818;stroke-width:0.5;"/><text x="27.331" y="26.533" fill="#000" font-size="14">S</text></g><g class="entity" data-qualified-name="GMN2" id="ent0003" data-source-line="4"><path d="M92,12.5 L92,28 L57.34,32 L92,36 L92,51.203 A4,4 0 0 0 96,55.203 L156,55.203 A4,4 0 0 0 160,51.203 L160,18.5 L150,8.5 L96,8.5 A4,4 0 0 0 92,12.5" style="stroke:#181818;stroke-width:0.5;" fill="#FEFFDD"/><path d="M150,8.5 L150,16.5 A2,2 0 0 0 152,18.5 L160,18.5 L150,8.5" style="stroke:#181818;stroke-width:0.5;" fill="#FEFFDD"/><text x="98" y="43.347" fill="#000" font-size="13" textLength="26">本文</text><line x1="93" y1="21.676" x2="106.5" y2="21.676" style="stroke:#181818;stroke-width:1;"/><line x1="93" y1="23.676" x2="106.5" y2="23.676" style="stroke:#181818;stroke-width:1;"/><text x="106.5" y="26.495" fill="#000" font-size="13" textLength="39">見出し</text><line x1="145.5" y1="21.676" x2="159" y2="21.676" style="stroke:#181818;stroke-width:1;"/><line x1="145.5" y1="23.676" x2="159" y2="23.676" style="stroke:#181818;stroke-width:1;"/></g><?plantuml-src AyxEp2j8B4hCLIZAByrBSSuloaijKh3WAYv9B4bL2ERAomTIHPdf6IKA-Mb0leA2hQt2YsNTJzjtFMwS3kG0HPxDMVDiMZjNQbwA0aWv0000?></g></svg>