<svg xmlns="http://www.w3.org/2000/svg" xmlns:xlink="http://www.w3.org/1999/xlink" version="1.1" data-diagram-type="SEQUENCE" style="width:249px;height:273px;background:#FFFFFF;" width="249px" height="273px" viewBox="0 0 249 273" zoomAndPan="magnify" preserveAspectRatio="none" contentStyleType="text/css"><?plantuml 1.2026.8?><defs/><g font-family="sans-serif" lengthAdjust="spacing"><g><title>A</title><rect x="18.169" y="42.609" width="8" height="187.273" fill="#000" fill-opacity="0"/><line x1="21.669" y1="42.609" x2="21.669" y2="229.883" style="stroke:#181818;stroke-width:0.5;stroke-dasharray:5,5;"/></g><g><title>B</title><rect x="86.344" y="50.609" width="8" height="179.273" fill="#000" fill-opacity="0"/><line x1="89.844" y1="50.609" x2="89.844" y2="229.883" style="stroke:#181818;stroke-width:0.5;stroke-dasharray:5,5;"/></g><g><title>.....</title><rect x="192.792" y="156.922" width="8" height="72.961" fill="#000" fill-opacity="0"/><line x1="196.292" y1="156.922" x2="196.292" y2="229.883" style="stroke:#181818;stroke-width:0.5;stroke-dasharray:5,5;"/></g><rect x="10" y="10" width="23.338" height="31.609" fill="#E2E2F0" style="stroke:#181818;stroke-width:0.5;" rx="2.5" ry="2.5"/><text x="17" y="31.533" fill="#000" font-size="14">A</text><rect x="10" y="229.883" width="23.338" height="31.609" fill="#E2E2F0" style="stroke:#181818;stroke-width:0.5;" rx="2.5" ry="2.5"/><text x="17" y="251.416" fill="#000" font-size="14">A</text><rect x="78.175" y="229.883" width="23.338" height="31.609" fill="#E2E2F0" style="stroke:#181818;stroke-width:0.5;" rx="2.5" ry="2.5"/><text x="85.175" y="251.416" fill="#000" font-size="14">B</text><rect x="154.292" y="229.883" width="84" height="31.609" fill="#E2E2F0" style="stroke:#181818;stroke-width:0.5;" rx="2.5" ry="2.5"/><text x="161.292" y="251.416" fill="#000" font-size="14" textLength="70">作られる側</text><rect x="78.175" y="50.609" width="23.338" height="31.609" fill="#E2E2F0" style="stroke:#181818;stroke-width:0.5;" rx="2.5" ry="2.5"/><text x="85.175" y="72.143" fill="#000" font-size="14">B</text><polygon points="66.175,68.961,76.175,72.961,66.175,76.961,70.175,72.961" fill="#181818" style="stroke:#181818;stroke-width:1;stroke-linejoin:miter;stroke-miterlimit:10;"/><line x1="21.669" y1="72.961" x2="72.175" y2="72.961" style="stroke:#181818;stroke-width:1;"/><text x="28.669" y="68.104" fill="#000" font-size="13" textLength="32.506">new()</text><line x1="89.844" y1="105.57" x2="131.844" y2="105.57" style="stroke:#181818;stroke-width:1;"/><line x1="131.844" y1="105.57" x2="131.844" y2="118.57" style="stroke:#181818;stroke-width:1;"/><line x1="90.844" y1="118.57" x2="131.844" y2="118.57" style="stroke:#181818;stroke-width:1;"/><polygon points="100.844,114.57,90.844,118.57,100.844,122.57,96.844,118.57" fill="#181818" style="stroke:#181818;stroke-width:1;stroke-linejoin:miter;stroke-miterlimit:10;"/><text x="96.844" y="100.714" fill="#000" font-size="13" textLength="25.276">init()</text><polygon points="77.844,144.922,87.844,148.922,77.844,152.922,81.844,148.922" fill="#181818" style="stroke:#181818;stroke-width:1;stroke-linejoin:miter;stroke-miterlimit:10;"/><line x1="21.669" y1="148.922" x2="83.844" y2="148.922" style="stroke:#181818;stroke-width:1;"/><text x="28.669" y="144.065" fill="#000" font-size="13" textLength="27.447">run()</text><rect x="154.292" y="156.922" width="84" height="31.609" fill="#E2E2F0" style="stroke:#181818;stroke-width:0.5;" rx="2.5" ry="2.5"/><text x="161.292" y="178.455" fill="#000" font-size="14" textLength="70">作られる側</text><polygon points="142.292,175.273,152.292,179.273,142.292,183.273,146.292,179.273" fill="#181818" style="stroke:#181818;stroke-width:1;stroke-linejoin:miter;stroke-miterlimit:10;"/><line x1="89.844" y1="179.273" x2="148.292" y2="179.273" style="stroke:#181818;stroke-width:1;"/><text x="96.844" y="174.417" fill="#000" font-size="13" textLength="40.447">make()</text><polygon points="32.669,207.883,22.669,211.883,32.669,215.883,28.669,211.883" fill="#181818" style="stroke:#181818;stroke-width:1;stroke-linejoin:miter;stroke-miterlimit:10;"/><line x1="26.669" y1="211.883" x2="195.292" y2="211.883" style="stroke:#181818;stroke-width:1;stroke-dasharray:2,2;"/><text x="38.669" y="207.026" fill="#000" font-size="13" textLength="32.519">ready</text><?plantuml-src AqWiAibCpYn8p2jHSEHoLD2rKt1IqD9Ii5B8IotNqEHoWeXOAMJcPPO0-OumVb5f7f2RN9IQM9AgK81aYjAJlNCUDtK-RkfvtDJzj76Baa9YiO8pn21deCRSnEnKe4vd1LsWW2F8fDJ4b4e0?></g></svg>