<?plantuml 1.2026.2?><svg xmlns="http://www.w3.org/2000/svg" xmlns:xlink="http://www.w3.org/1999/xlink" contentStyleType="text/css" data-diagram-type="STATE" height="314px" preserveAspectRatio="none" style="width:328px;height:314px;background:#FFFFFF;" version="1.1" viewBox="0 0 328 314" width="328px" zoomAndPan="magnify"><defs/><g><!--cluster Diagnostics--><g class="cluster" data-qualified-name="Diagnostics" data-source-line="1" id="ent0002"><path d="M119.5,43.1855 L271.5,43.1855 A12.5,12.5 0 0 1 284,55.6855 L284,65.7949 L107,65.7949 L107,55.6855 A12.5,12.5 0 0 1 119.5,43.1855" fill="#F1F1F1"/><rect fill="none" height="242" rx="12.5" ry="12.5" style="stroke:#181818;stroke-width:0.5;" width="177" x="107" y="43.1855"/><line style="stroke:#181818;stroke-width:0.5;" x1="107" x2="284" y1="65.7949" y2="65.7949"/><text fill="#000000" font-family="sans-serif" font-size="14" lengthAdjust="spacing" textLength="72.3652" x="159.3174" y="62.7188">Diagnostics</text></g><text fill="#000000" font-family="sans-serif" font-size="14" lengthAdjust="spacing" textLength="38.9102" x="189.5449" y="22.1094">entry1</text><ellipse cx="209" cy="43.1855" fill="#F1F1F1" rx="6" ry="6" style="stroke:#181818;stroke-width:1.5;"/><text fill="#000000" font-family="sans-serif" font-size="14" lengthAdjust="spacing" textLength="29.5723" x="194.2139" y="305.7188">exit1</text><ellipse cx="209" cy="285.1855" fill="#F1F1F1" rx="6" ry="6" style="stroke:#181818;stroke-width:1.5;"/><line style="stroke:#181818;stroke-width:1.5;" x1="213.3891" x2="205.6109" y1="289.5746" y2="281.7965"/><line style="stroke:#181818;stroke-width:1.5;" x1="213.3891" x2="205.6109" y1="281.7965" y2="289.5746"/><g class="entity" data-qualified-name="Diagnostics.RunningDiag" id="ent0002"><rect fill="#F1F1F1" height="50" rx="12.5" ry="12.5" style="stroke:#181818;stroke-width:0.5;" width="100.9443" x="158.5" y="146.1855"/><line style="stroke:#181818;stroke-width:0.5;" x1="158.5" x2="259.4443" y1="173.7949" y2="173.7949"/><text fill="#000000" font-family="sans-serif" font-size="14" lengthAdjust="spacing" textLength="80.9443" x="168.5" y="165.7188">RunningDiag</text></g><ellipse cx="17" cy="43.1855" fill="#F1F1F1" rx="11" ry="11" style="stroke:#181818;stroke-width:0.5;"/><text fill="#000000" font-family="sans-serif" font-size="14" lengthAdjust="spacing" textLength="10.1104" x="11.9448" y="48.9141">H</text><ellipse cx="65" cy="171.1855" fill="#F1F1F1" rx="11" ry="11" style="stroke:#181818;stroke-width:0.5;"/><text fill="#000000" font-family="sans-serif" font-size="14" lengthAdjust="spacing" textLength="10.1104" x="59.9448" y="176.9141">H</text><g class="start_entity" data-qualified-name=".start." data-source-line="8" id="ent0005"><ellipse cx="73" cy="43.1855" fill="#222222" rx="10" ry="10" style="stroke:#222222;stroke-width:1;"/></g><g class="end_entity" data-qualified-name=".end." data-source-line="9" id="ent0007"><ellipse cx="311" cy="285.1855" fill="none" rx="11" ry="11" style="stroke:#222222;stroke-width:1;"/><ellipse cx="311" cy="285.1855" fill="#222222" rx="6" ry="6" style="stroke:#222222;stroke-width:1;"/></g><!--link entry1 to RunningDiag--><g class="link" data-entity-1="ent0003" data-entity-2="ent0002" data-link-type="dependency" data-source-line="4" id="lnk3"><path d="M209,49.2855 C209,65.3455 209,109.6855 209,140.1155" fill="none" id="entry1-to-RunningDiag" style="stroke:#181818;stroke-width:1;"/><polygon fill="#181818" points="209,146.1155,213,137.1155,209,141.1155,205,137.1155,209,146.1155" style="stroke:#181818;stroke-width:1;"/></g><!--link RunningDiag to exit1--><g class="link" data-entity-1="ent0002" data-entity-2="ent0004" data-link-type="dependency" data-source-line="5" id="lnk4"><path d="M209,196.2155 C209,222.9555 209,258.3155 209,272.8855" fill="none" id="RunningDiag-to-exit1" style="stroke:#181818;stroke-width:1;"/><polygon fill="#181818" points="209,278.8855,213,269.8855,209,273.8855,205,269.8855,209,278.8855" style="stroke:#181818;stroke-width:1;"/></g><!--link *start* to Diagnostics--><g class="link" data-entity-1="ent0005" data-entity-2="ent0002" data-link-type="dependency" data-source-line="8" id="lnk6"><path d="M76.2,52.8655 C80.42,64.2255 88.11,84.7555 95,102.1855 C97.91,109.5455 101.0531,117.3293 104.1456,124.8998 C104.9187,126.7924 105.6887,128.6717 106.4511,130.5277 C106.5464,130.7597 106.6415,130.9913 106.7366,131.2226 C106.7841,131.3382 104.55,125.9044 104.5975,126.0199" fill="none" id="*start*-to-Diagnostics" style="stroke:#181818;stroke-width:1;"/><polygon fill="#181818" points="106.8791,131.5692,107.1562,121.7242,104.9778,126.9448,99.7572,124.7663,106.8791,131.5692" style="stroke:#181818;stroke-width:1;"/><text fill="#000000" font-family="sans-serif" font-size="13" lengthAdjust="spacing" textLength="36.1309" x="96" y="98.6807">entry1</text></g><!--link Diagnostics to *end*--><g class="link" data-entity-1="ent0002" data-entity-2="ent0007" data-link-type="dependency" data-source-line="9" id="lnk8"><path d="M284.493,270.8153 C284.9838,271.026 285.4765,271.2394 285.9712,271.4556 C287.9497,272.3202 289.9588,273.229 292,274.1855 C295.24,275.7055 293.4202,274.6727 296.5102,276.3127" fill="none" id="Diagnostics-to-*end*" style="stroke:#181818;stroke-width:1;"/><polygon fill="#181818" points="301.81,279.1255,295.7355,271.3731,297.3935,276.7815,291.9851,278.4395,301.81,279.1255" style="stroke:#181818;stroke-width:1;"/><text fill="#000000" font-family="sans-serif" font-size="13" lengthAdjust="spacing" textLength="27.46" x="191" y="240.6807">exit1</text></g><!--link *start* to DeepHist--><g class="link" data-entity-1="ent0005" data-entity-2="ent0006" data-link-type="dependency" data-source-line="11" id="lnk9"><path d="M72.42,53.2455 C70.97,76.1555 67.5283,130.2775 66.0183,154.1775" fill="none" id="*start*-to-DeepHist" style="stroke:#181818;stroke-width:1;"/><polygon fill="#181818" points="65.64,160.1655,70.1995,151.4357,65.9553,155.1755,62.2154,150.9312,65.64,160.1655" style="stroke:#181818;stroke-width:1;"/></g><?plantuml-src ROwz2i90383tUufi_a07rr8wTN0KLt4eRQm1pTMx75Z4T_SkFMW7f_nyoPTuQGMXeNPWwuKw3ny3uBMBB6uwG5LfShB4KjSBVPCeZ75XUQSeQZW7Pk8XkIDOLKfrtNpDB3kI5-kcgBlFMPHTzbUTN3zNvWDctKn3QRZCqbdP88v9-z-PeTd0TcpxFdu63sA4ctNGMJS6htNHsS023b-173xZyTqF?></g></svg>