<svg xmlns="http://www.w3.org/2000/svg" xmlns:xlink="http://www.w3.org/1999/xlink" version="1.1" data-diagram-type="STATE" style="width:776px;height:281px;background:#FFFFFF;" width="776px" height="281px" viewBox="0 0 776 281" zoomAndPan="magnify" preserveAspectRatio="none" contentStyleType="text/css"><?plantuml 1.2026.8?><defs/><g font-family="sans-serif" lengthAdjust="spacing"><!--cluster Comp--><g class="cluster" data-qualified-name="Comp" id="ent0009" data-source-line="9"><path d="M611.5,43.186 L748.5,43.186 A12.5,12.5 0 0 1 761,55.686 L761,65.795 L599,65.795 L599,55.686 A12.5,12.5 0 0 1 611.5,43.186" fill="#F1F1F1"/><rect x="599" y="43.186" width="162" height="201" fill="none" style="stroke:#181818;stroke-width:0.5;" rx="12.5" ry="12.5"/><line x1="599" y1="65.795" x2="761" y2="65.795" style="stroke:#181818;stroke-width:0.5;"/><text x="661.328" y="62.719" fill="#000" font-size="14" textLength="37.345">Comp</text></g><ellipse cx="720" cy="153.186" rx="11" ry="11" fill="#F1F1F1" style="stroke:#181818;stroke-width:0.5;"/><text x="714.945" y="158.914" fill="#000" font-size="14">H</text><text x="733.662" y="22.109" fill="#000" font-size="14" textLength="18.676">EP</text><ellipse cx="743" cy="43.186" rx="6" ry="6" fill="#F1F1F1" style="stroke:#181818;stroke-width:1.5;"/><text x="733.662" y="264.719" fill="#000" font-size="14" textLength="18.676">XP</text><ellipse cx="743" cy="244.186" rx="6" ry="6" fill="#F1F1F1" style="stroke:#181818;stroke-width:1.5;"/><line x1="747.389" y1="248.575" x2="739.611" y2="240.796" style="stroke:#181818;stroke-width:1.5;"/><line x1="747.389" y1="240.796" x2="739.611" y2="248.575" style="stroke:#181818;stroke-width:1.5;"/><text x="690.162" y="22.109" fill="#000" font-size="14" textLength="11.676">I1</text><rect x="690" y="37.186" width="12" height="12" fill="#F1F1F1" style="stroke:#181818;stroke-width:1.5;"/><text x="686.662" y="264.719" fill="#000" font-size="14" textLength="18.676">O1</text><rect x="690" y="238.186" width="12" height="12" fill="#F1F1F1" style="stroke:#181818;stroke-width:1.5;"/><text x="604.438" y="22.109" fill="#000" font-size="14" textLength="17.124">X1</text><rect x="607" y="37.186" width="48" height="12" fill="#F1F1F1" style="stroke:#181818;stroke-width:1.5;"/><line x1="619" y1="37.186" x2="619" y2="49.186" style="stroke:#181818;stroke-width:1.5;"/><line x1="631" y1="37.186" x2="631" y2="49.186" style="stroke:#181818;stroke-width:1.5;"/><line x1="643" y1="37.186" x2="643" y2="49.186" style="stroke:#181818;stroke-width:1.5;"/><text x="604.438" y="264.719" fill="#000" font-size="14" textLength="17.124">X2</text><rect x="607" y="238.186" width="48" height="12" fill="#F1F1F1" style="stroke:#181818;stroke-width:1.5;"/><line x1="619" y1="238.186" x2="619" y2="250.186" style="stroke:#181818;stroke-width:1.5;"/><line x1="631" y1="238.186" x2="631" y2="250.186" style="stroke:#181818;stroke-width:1.5;"/><line x1="643" y1="238.186" x2="643" y2="250.186" style="stroke:#181818;stroke-width:1.5;"/><g class="entity" data-qualified-name="Comp.B" id="ent0017" data-source-line="17"><rect x="624" y="128.186" width="50" height="50" fill="#F1F1F1" style="stroke:#181818;stroke-width:0.5;" rx="12.5" ry="12.5"/><line x1="624" y1="155.795" x2="674" y2="155.795" style="stroke:#181818;stroke-width:0.5;"/><text x="644.331" y="147.719" fill="#000" font-size="14">B</text></g><g class="entity" data-qualified-name="A" id="ent0001" data-source-line="1"><rect x="7" y="18.186" width="50" height="50" fill="#F1F1F1" style="stroke:#181818;stroke-width:0.5;" rx="12.5" ry="12.5"/><line x1="7" y1="45.795" x2="57" y2="45.795" style="stroke:#181818;stroke-width:0.5;"/><text x="27.331" y="37.719" fill="#000" font-size="14">A</text></g><g class="entity" data-qualified-name="C1" id="ent0002"><polygon points="104,31.186,116,43.186,104,55.186,92,43.186,104,31.186" fill="#F1F1F1" style="stroke:#181818;stroke-width:0.5;stroke-linejoin:miter;stroke-miterlimit:10;"/></g><rect x="151" y="39.186" width="80" height="8" fill="#555" style="stroke:none;"/><rect x="266" y="39.186" width="80" height="8" fill="#555" style="stroke:none;"/><g class="end_entity" data-qualified-name="E1" id="ent0005" data-source-line="5"><ellipse cx="392" cy="43.186" rx="11" ry="11" fill="none" style="stroke:#222;stroke-width:1;"/><ellipse cx="392" cy="43.186" rx="6" ry="6" fill="#222" style="stroke:#222;stroke-width:1;"/></g><g class="start_entity" data-qualified-name="S1" id="ent0006" data-source-line="6"><ellipse cx="448" cy="43.186" rx="10" ry="10" fill="#222" style="stroke:#222;stroke-width:1;"/></g><ellipse cx="504" cy="43.186" rx="11" ry="11" fill="#F1F1F1" style="stroke:#181818;stroke-width:0.5;"/><text x="498.945" y="48.914" fill="#000" font-size="14">H</text><ellipse cx="561" cy="43.186" rx="11" ry="11" fill="#F1F1F1" style="stroke:#181818;stroke-width:0.5;"/><text x="553.221" y="48.914" fill="#000" font-size="14" textLength="15.559">H*</text><?plantuml-src PSz12u8m5C3n-px5pjtoB4A9eLqSTF4gjd15UsDxWX9zztn3vwhJvFVtiJU7BKf-OCwV-PwdQTU3wcIMBNOYku5z13cJt47f80M9rDS05uBvqsAWagXN3i5E6oORxeBcy3JynJXVVYg_9bSkXByKxIJcNJ0gZI-ZmjzGqGvAcm65ttxrcXm6_0kDVzXeMkqKw8ecuvh4jVRpKJwozmS0?></g></svg>