<?plantuml 1.2026.2?><svg xmlns="http://www.w3.org/2000/svg" xmlns:xlink="http://www.w3.org/1999/xlink" contentStyleType="text/css" data-diagram-type="STATE" height="493px" preserveAspectRatio="none" style="width:174px;height:493px;background:#FFFFFF;" version="1.1" viewBox="0 0 174 493" width="174px" zoomAndPan="magnify"><defs/><g><path d="M19.5,7 L68.1963,7 A12.5,12.5 0 0 1 80.6963,19.5 L80.6963,34.6094 L7,34.6094 L7,19.5 A12.5,12.5 0 0 1 19.5,7" fill="#F1F1F1"/><rect fill="none" height="240.6094" rx="12.5" ry="12.5" style="stroke:#181818;stroke-width:0.5;" width="73.6963" x="7" y="7"/><line style="stroke:#181818;stroke-width:0.5;" x1="7" x2="80.6963" y1="34.6094" y2="34.6094"/><text fill="#000000" font-family="sans-serif" font-size="14" lengthAdjust="spacing" textLength="40.4756" x="23.6104" y="26.5332">State3</text><g class="start_entity" data-qualified-name="State3..start.State3" data-source-line="4" id="ent0007"><ellipse cx="45.5" cy="55.6094" fill="#222222" rx="10" ry="10" style="stroke:#222222;stroke-width:1;"/></g><g class="entity" data-qualified-name="State3.Sub1" id="ent0008"><rect fill="#F1F1F1" height="50" rx="12.5" ry="12.5" style="stroke:#181818;stroke-width:0.5;" width="52.6963" x="19" y="101.6094"/><line style="stroke:#181818;stroke-width:0.5;" x1="19" x2="71.6963" y1="129.2188" y2="129.2188"/><text fill="#000000" font-family="sans-serif" font-size="14" lengthAdjust="spacing" textLength="32.6963" x="29" y="121.1426">Sub1</text></g><g class="entity" data-qualified-name="State3.Sub2" id="ent0010"><rect fill="#F1F1F1" height="50" rx="12.5" ry="12.5" style="stroke:#181818;stroke-width:0.5;" width="52.6963" x="19" y="187.6094"/><line style="stroke:#181818;stroke-width:0.5;" x1="19" x2="71.6963" y1="215.2188" y2="215.2188"/><text fill="#000000" font-family="sans-serif" font-size="14" lengthAdjust="spacing" textLength="32.6963" x="29" y="207.1426">Sub2</text></g><!--link *start*State3 to Sub1--><g class="link" data-entity-1="ent0007" data-entity-2="ent0008" data-link-type="dependency" data-source-line="4" id="lnk9"><path d="M45.5,65.6294 C45.5,74.6894 45.5,83.0494 45.5,95.4394" fill="none" id="*start*State3-to-Sub1" style="stroke:#181818;stroke-width:1;"/><polygon fill="#181818" points="45.5,101.4394,49.5,92.4394,45.5,96.4394,41.5,92.4394,45.5,101.4394" style="stroke:#181818;stroke-width:1;"/></g><!--link Sub1 to Sub2--><g class="link" data-entity-1="ent0008" data-entity-2="ent0010" data-link-type="dependency" data-source-line="5" id="lnk11"><path d="M45.5,151.9094 C45.5,163.0494 45.5,170.2294 45.5,181.3694" fill="none" id="Sub1-to-Sub2" style="stroke:#181818;stroke-width:1;"/><polygon fill="#181818" points="45.5,187.3694,49.5,178.3694,45.5,182.3694,41.5,178.3694,45.5,187.3694" style="stroke:#181818;stroke-width:1;"/></g><g class="start_entity" data-qualified-name=".start." data-source-line="1" id="ent0002"><ellipse cx="126" cy="127.5" fill="#222222" rx="10" ry="10" style="stroke:#222222;stroke-width:1;"/></g><g class="entity" data-qualified-name="State1" id="ent0003"><rect fill="#F1F1F1" height="50" rx="12.5" ry="12.5" style="stroke:#181818;stroke-width:0.5;" width="60.4756" x="96" y="309"/><line style="stroke:#181818;stroke-width:0.5;" x1="96" x2="156.4756" y1="336.6094" y2="336.6094"/><text fill="#000000" font-family="sans-serif" font-size="14" lengthAdjust="spacing" textLength="40.4756" x="106" y="328.5332">State1</text></g><g class="entity" data-qualified-name="State2" id="ent0005"><rect fill="#F1F1F1" height="50" rx="12.5" ry="12.5" style="stroke:#181818;stroke-width:0.5;" width="60.4756" x="96" y="437"/><line style="stroke:#181818;stroke-width:0.5;" x1="96" x2="156.4756" y1="464.6094" y2="464.6094"/><text fill="#000000" font-family="sans-serif" font-size="14" lengthAdjust="spacing" textLength="40.4756" x="106" y="456.5332">State2</text></g><!--link *start* to State1--><g class="link" data-entity-1="ent0002" data-entity-2="ent0003" data-link-type="dependency" data-source-line="1" id="lnk4"><path d="M126,137.55 C126,167.39 126,257.32 126,302.74" fill="none" id="*start*-to-State1" style="stroke:#181818;stroke-width:1;"/><polygon fill="#181818" points="126,308.74,130,299.74,126,303.74,122,299.74,126,308.74" style="stroke:#181818;stroke-width:1;"/></g><!--link State1 to State2--><g class="link" data-entity-1="ent0003" data-entity-2="ent0005" data-link-type="dependency" data-source-line="2" id="lnk6"><path d="M126,359.29 C126,381.61 126,408.49 126,430.78" fill="none" id="State1-to-State2" style="stroke:#181818;stroke-width:1;"/><polygon fill="#181818" points="126,436.78,130,427.78,126,431.78,122,427.78,126,436.78" style="stroke:#181818;stroke-width:1;"/><text fill="#000000" font-family="sans-serif" font-size="13" lengthAdjust="spacing" textLength="39.0317" x="127" y="403.4951">event1</text></g><?plantuml-src YzQALT3LjLC8BaaiIJNaWb084IC5AuNKijIy4aEkOX0V8cgiKCsbe10DqrgQP0ZaWYWOtuYh5W00?></g></svg>