<svg xmlns="http://www.w3.org/2000/svg" xmlns:xlink="http://www.w3.org/1999/xlink" version="1.1" data-diagram-type="STATE" style="width:162px;height:585px;background:#FFFFFF;" width="162px" height="585px" viewBox="0 0 162 585" zoomAndPan="magnify" preserveAspectRatio="none" contentStyleType="text/css"><?plantuml 1.2026.8?><defs/><g font-family="sans-serif" lengthAdjust="spacing"><g class="entity" data-qualified-name="." id="ent0001" data-source-line="1"><path d="M45.5,86 L109.5,86 A12.5,12.5 0 0 1 122,98.5 L122,113.609 L33,113.609 L33,98.5 A12.5,12.5 0 0 1 45.5,86" fill="#F1F1F1"/><rect x="33" y="86" width="89" height="262.609" fill="none" style="stroke:#181818;stroke-width:0.5;" rx="12.5" ry="12.5"/><line x1="33" y1="113.609" x2="122" y2="113.609" style="stroke:#181818;stroke-width:0.5;"/><text x="70.5" y="105.533" fill="#000" font-size="14">親</text><g class="start_entity" data-qualified-name="...start.." id="ent0004" data-source-line="2"><ellipse cx="70" cy="134.609" rx="10" ry="10" fill="#222" style="stroke:#222;stroke-width:1;"/></g><g class="entity" data-qualified-name="...A" id="ent0005" data-source-line="2"><rect x="45" y="181.609" width="50" height="50" fill="#F1F1F1" style="stroke:#181818;stroke-width:0.5;" rx="12.5" ry="12.5"/><line x1="45" y1="209.219" x2="95" y2="209.219" style="stroke:#181818;stroke-width:0.5;"/><text x="58.331" y="201.143" fill="#000" font-size="14" textLength="23.338">子A</text></g><g class="entity" data-qualified-name="...B" id="ent0007" data-source-line="3"><rect x="45" y="285.609" width="50" height="50" fill="#F1F1F1" style="stroke:#181818;stroke-width:0.5;" rx="12.5" ry="12.5"/><line x1="45" y1="313.219" x2="95" y2="313.219" style="stroke:#181818;stroke-width:0.5;"/><text x="58.331" y="305.143" fill="#000" font-size="14" textLength="23.338">子B</text></g><!--link *start*親 to 子A--><g class="link" data-entity-1="ent0004" data-entity-2="ent0005" id="lnk6" data-source-line="2" data-link-type="dependency"><path d="M70,144.759 C70,154.029 70,163.749 70,176.389" style="stroke:#181818;stroke-width:1;" fill="none" id="*start*親-to-子A"/><polygon points="70,181.389,74,172.389,70,176.389,66,172.389,70,181.389" fill="#181818" style="stroke:#181818;stroke-width:1;stroke-linejoin:miter;stroke-miterlimit:10;"/></g><!--link 子A to 子B--><g class="link" data-entity-1="ent0005" data-entity-2="ent0007" id="lnk8" data-source-line="3" data-link-type="dependency"><path d="M70,231.779 C70,247.919 70,264.079 70,280.259" style="stroke:#181818;stroke-width:1;" fill="none" id="子A-to-子B"/><polygon points="70,285.259,74,276.259,70,280.259,66,276.259,70,285.259" fill="#181818" style="stroke:#181818;stroke-width:1;stroke-linejoin:miter;stroke-miterlimit:10;"/><text x="71" y="264.104" fill="#000" font-size="13" textLength="26">行く</text></g></g><g class="entity" data-qualified-name="Run" id="ent0002" data-source-line="6"><path d="M19.5,409 L135.293,409 A12.5,12.5 0 0 1 147.793,421.5 L147.793,436.609 L7,436.609 L7,421.5 A12.5,12.5 0 0 1 19.5,409" fill="#F1F1F1"/><rect x="7" y="409" width="140.793" height="162.828" fill="none" style="stroke:#181818;stroke-width:0.5;" rx="12.5" ry="12.5"/><line x1="7" y1="436.609" x2="147.793" y2="436.609" style="stroke:#181818;stroke-width:0.5;"/><text x="64.555" y="428.533" fill="#000" font-size="14" textLength="25.683">Run</text><g class="entity" data-qualified-name="Run..." id="ent0003" data-source-line="8"><rect x="19" y="503.609" width="104.793" height="55.219" fill="#F1F1F1" style="stroke:#181818;stroke-width:0.5;" rx="12.5" ry="12.5"/><line x1="19" y1="531.219" x2="123.793" y2="531.219" style="stroke:#181818;stroke-width:0.5;"/><text x="57.396" y="523.143" fill="#000" font-size="14" textLength="28">待機</text><text x="24" y="550.752" fill="#000" font-size="14" textLength="84.793">entry / 初期化</text></g><g class="start_entity" data-qualified-name="Run..start.Run" id="ent0011" data-source-line="7"><ellipse cx="71.5" cy="457.609" rx="10" ry="10" fill="#222" style="stroke:#222;stroke-width:1;"/></g><!--link *start*Run to 待機--><g class="link" data-entity-1="ent0011" data-entity-2="ent0003" id="lnk12" data-source-line="7" data-link-type="dependency"><path d="M71.5,467.669 C71.5,476.679 71.5,485.969 71.5,498.599" style="stroke:#181818;stroke-width:1;" fill="none" id="*start*Run-to-待機"/><polygon points="71.5,503.599,75.5,494.599,71.5,498.599,67.5,494.599,71.5,503.599" fill="#181818" style="stroke:#181818;stroke-width:1;stroke-linejoin:miter;stroke-miterlimit:10;"/></g></g><g class="start_entity" data-qualified-name=".start." id="ent0009" data-source-line="5"><ellipse cx="77.5" cy="16" rx="10" ry="10" fill="#222" style="stroke:#222;stroke-width:1;"/></g><!--link *start* to 親--><g class="link" data-entity-1="ent0009" data-entity-2="ent0001" id="lnk10" data-source-line="5" data-link-type="dependency"><path d="M77.5,26.09 C77.5,37.98 77.5,55.3 77.5,80.6" style="stroke:#181818;stroke-width:1;" fill="none" id="*start*-to-親"/><polygon points="77.5,85.6,81.5,76.6,77.5,80.6,73.5,76.6,77.5,85.6" fill="#181818" style="stroke:#181818;stroke-width:1;stroke-linejoin:miter;stroke-miterlimit:10;"/></g><!--link 親 to Run--><g class="link" data-entity-1="ent0001" data-entity-2="ent0002" id="lnk13" data-source-line="10" data-link-type="dependency"><path d="M77.5,349.24 C77.5,369.54 77.5,384.99 77.5,403.75" style="stroke:#181818;stroke-width:1;" fill="none" id="親-to-Run"/><polygon points="77.5,408.75,81.5,399.75,77.5,403.75,73.5,399.75,77.5,408.75" fill="#181818" style="stroke:#181818;stroke-width:1;stroke-linejoin:miter;stroke-miterlimit:10;"/></g><?plantuml-src Aov9B4bLUB5ibK8rbu92j5QiWgwkdSBJjHCSWLmG1UCxALWfl5ZOyxYndwkM2wOEg8-h66n2K6aUgWdxMf-jd0yo0ym0QaxDAocgLD1NUDenzzcS-KzxfW7D0TaBKWtK3G00?></g></svg>