<svg xmlns="http://www.w3.org/2000/svg" xmlns:xlink="http://www.w3.org/1999/xlink" version="1.1" data-diagram-type="STATE" style="width:240px;height:155px;background:#FFFFFF;" width="240px" height="155px" viewBox="0 0 240 155" zoomAndPan="magnify" preserveAspectRatio="none" contentStyleType="text/css"><?plantuml 1.2026.8?><defs/><g font-family="sans-serif" lengthAdjust="spacing"><!--cluster Diagnostics--><g class="cluster" data-qualified-name="Diagnostics" id="ent0001" data-source-line="1"><path d="M152.5,43.186 L212.5,43.186 A12.5,12.5 0 0 1 225,55.686 L225,65.795 L140,65.795 L140,55.686 A12.5,12.5 0 0 1 152.5,43.186" fill="#F1F1F1"/><rect x="140" y="43.186" width="85" height="98.36" fill="none" style="stroke:#181818;stroke-width:0.5;" rx="12.5" ry="12.5"/><line x1="140" y1="65.795" x2="225" y2="65.795" style="stroke:#181818;stroke-width:0.5;"/><text x="146.317" y="62.719" fill="#000" font-size="14" textLength="72.365">Diagnostics</text></g><text x="138.545" y="22.109" fill="#000" font-size="14" textLength="38.91">entry1</text><ellipse cx="158" cy="43.186" rx="6" ry="6" fill="#F1F1F1" style="stroke:#181818;stroke-width:1.5;"/><ellipse cx="17" cy="43.186" rx="11" ry="11" fill="#F1F1F1" style="stroke:#181818;stroke-width:0.5;"/><text x="11.945" y="48.914" fill="#000" font-size="14">H</text><ellipse cx="73" cy="125.186" rx="11" ry="11" fill="#F1F1F1" style="stroke:#181818;stroke-width:0.5;"/><text x="67.945" y="130.914" fill="#000" font-size="14">H</text><g class="start_entity" data-qualified-name=".start." id="ent0005" data-source-line="6"><ellipse cx="73" cy="43.186" rx="10" ry="10" fill="#222" style="stroke:#222;stroke-width:1;"/></g><!--link *start* to DeepHist--><g class="link" data-entity-1="ent0005" data-entity-2="ent0004" id="lnk6" data-source-line="6" data-link-type="dependency"><path d="M73,53.366 C73,68.466 73,93.446 73,109.116" style="stroke:#181818;stroke-width:1;" fill="none" id="*start*-to-DeepHist"/><polygon points="73,114.116,77,105.116,73,109.116,69,105.116,73,114.116" fill="#181818" style="stroke:#181818;stroke-width:1;stroke-linejoin:miter;stroke-miterlimit:10;"/></g><?plantuml-src Aov9B4bLSCbCJC_BBox9J2vMgEPIK2W6YwRcbHHL6YhOs80P0VcPUILsTborN11PZypYaloYIg1q1eG5b8F8kAIc5e1aKQIYjM8LT7Nju980?></g></svg>