<svg xmlns="http://www.w3.org/2000/svg" xmlns:xlink="http://www.w3.org/1999/xlink" version="1.1" data-diagram-type="SEQUENCE" style="width:139px;height:231px;background:#FFFFFF;" width="139px" height="231px" viewBox="0 0 139 231" zoomAndPan="magnify" preserveAspectRatio="none" contentStyleType="text/css"><?plantuml 1.2026.8?><defs/><g font-family="sans-serif" lengthAdjust="spacing"><g><title>..</title><rect x="27.5" y="42.609" width="8" height="145.406" fill="#000" fill-opacity="0"/><line x1="31" y1="42.609" x2="31" y2="188.016" style="stroke:#181818;stroke-width:0.5;stroke-dasharray:5,5;"/></g><g><title>..GW</title><rect x="91.552" y="42.609" width="8" height="145.406" fill="#000" fill-opacity="0"/><line x1="95.052" y1="42.609" x2="95.052" y2="188.016" style="stroke:#181818;stroke-width:0.5;stroke-dasharray:5,5;"/></g><rect x="10" y="10" width="42" height="31.609" fill="#ADD8E6" style="stroke:#181818;stroke-width:0.5;" rx="2.5" ry="2.5"/><text x="17" y="31.533" fill="#000" font-size="14" textLength="28">店舗</text><rect x="62" y="10" width="66.104" height="31.609" fill="#ADD8E6" style="stroke:#181818;stroke-width:0.5;" rx="2.5" ry="2.5"/><text x="69" y="31.533" fill="#000" font-size="14" textLength="52.104">決済GW</text><rect x="10" y="188.016" width="42" height="31.609" fill="#ADD8E6" style="stroke:#181818;stroke-width:0.5;" rx="2.5" ry="2.5"/><text x="17" y="209.549" fill="#000" font-size="14" textLength="28">店舗</text><rect x="62" y="188.016" width="66.104" height="31.609" fill="#ADD8E6" style="stroke:#181818;stroke-width:0.5;" rx="2.5" ry="2.5"/><text x="69" y="209.549" fill="#000" font-size="14" textLength="52.104">決済GW</text><polygon points="83.052,68.961,93.052,72.961,83.052,76.961,87.052,72.961" fill="#181818" style="stroke:#181818;stroke-width:1;stroke-linejoin:miter;stroke-miterlimit:10;"/><line x1="31" y1="72.961" x2="89.052" y2="72.961" style="stroke:#181818;stroke-width:1;"/><text x="38" y="68.104" fill="#000" font-size="13">a</text><polygon points="42,99.313,32,103.313,42,107.313,38,103.313" fill="#181818" style="stroke:#181818;stroke-width:1;stroke-linejoin:miter;stroke-miterlimit:10;"/><line x1="36" y1="103.313" x2="94.052" y2="103.313" style="stroke:#181818;stroke-width:1;stroke-dasharray:2,2;"/><text x="48" y="98.456" fill="#000" font-size="13" textLength="13.73">ok</text><path d="M80.937,116.313 L80.937,142.313 L108.937,142.313 L108.937,126.313 L98.937,116.313 L80.937,116.313" style="stroke:#181818;stroke-width:0.5;" fill="#FFC"/><path d="M98.937,116.313 L98.937,126.313 L108.937,126.313 L98.937,116.313" style="stroke:#181818;stroke-width:0.5;" fill="#FFC"/><text x="86.937" y="134.808" fill="#000" font-size="13">n</text><polygon points="83.052,166.016,93.052,170.016,83.052,174.016,87.052,170.016" fill="#181818" style="stroke:#181818;stroke-width:1;stroke-linejoin:miter;stroke-miterlimit:10;"/><line x1="31" y1="170.016" x2="89.052" y2="170.016" style="stroke:#181818;stroke-width:1;"/><text x="38" y="165.159" fill="#000" font-size="13">b</text><?plantuml-src ioakgSn9jUCgJYqiJSrBJdN9J4mlIinLgEPIK2X8B2h9JCuiICmh0VCL59mIaxFTY_9ByrASytFoYnHoCjCpIf9oIbE1ihL0d9TVaef3gR8R43WxWnNMSjdeG-r5jkFfhkalEgOh91Oh1AE8FzkuwzcE3lTma8mxLx22hfs2kuALGYANku8ka1qCPETdSu7jpYzBBG9BvY7K9G40?></g></svg>