<svg xmlns="http://www.w3.org/2000/svg" xmlns:xlink="http://www.w3.org/1999/xlink" version="1.1" data-diagram-type="STATE" style="width:197px;height:504px;background:#FFFFFF;" width="197px" height="504px" viewBox="0 0 197 504" zoomAndPan="magnify" preserveAspectRatio="none" contentStyleType="text/css"><?plantuml 1.2026.8?><defs/><g font-family="sans-serif" lengthAdjust="spacing"><g class="entity" data-qualified-name="State3" id="ent0001" data-source-line="3"><path d="M19.5,7 L83.196,7 A12.5,12.5 0 0 1 95.696,19.5 L95.696,34.609 L7,34.609 L7,19.5 A12.5,12.5 0 0 1 19.5,7" fill="#F1F1F1"/><rect x="7" y="7" width="88.696" height="243.609" fill="none" style="stroke:#181818;stroke-width:0.5;" rx="12.5" ry="12.5"/><line x1="7" y1="34.609" x2="95.696" y2="34.609" style="stroke:#181818;stroke-width:0.5;"/><text x="31.11" y="26.533" fill="#000" font-size="14" textLength="40.476">State3</text><g class="start_entity" data-qualified-name="State3..start.State3" id="ent0007" data-source-line="4"><ellipse cx="45.5" cy="55.609" rx="10" ry="10" fill="#222" style="stroke:#222;stroke-width:1;"/></g><g class="entity" data-qualified-name="State3.Sub1" id="ent0008" data-source-line="4"><rect x="19" y="101.609" width="52.696" height="50" fill="#F1F1F1" style="stroke:#181818;stroke-width:0.5;" rx="12.5" ry="12.5"/><line x1="19" y1="129.219" x2="71.696" y2="129.219" style="stroke:#181818;stroke-width:0.5;"/><text x="29" y="121.143" fill="#000" font-size="14" textLength="32.696">Sub1</text></g><g class="entity" data-qualified-name="State3.Sub2" id="ent0010" data-source-line="5"><rect x="19" y="187.609" width="52.696" height="50" fill="#F1F1F1" style="stroke:#181818;stroke-width:0.5;" rx="12.5" ry="12.5"/><line x1="19" y1="215.219" x2="71.696" y2="215.219" style="stroke:#181818;stroke-width:0.5;"/><text x="29" y="207.143" fill="#000" font-size="14" textLength="32.696">Sub2</text></g><!--link *start*State3 to Sub1--><g class="link" data-entity-1="ent0007" data-entity-2="ent0008" id="lnk9" data-source-line="4" data-link-type="dependency"><path d="M45.5,65.629 C45.5,74.689 45.5,84.049 45.5,96.439" style="stroke:#181818;stroke-width:1;" fill="none" id="*start*State3-to-Sub1"/><polygon points="45.5,101.439,49.5,92.439,45.5,96.439,41.5,92.439,45.5,101.439" fill="#181818" style="stroke:#181818;stroke-width:1;stroke-linejoin:miter;stroke-miterlimit:10;"/></g><!--link Sub1 to Sub2--><g class="link" data-entity-1="ent0008" data-entity-2="ent0010" id="lnk11" data-source-line="5" data-link-type="dependency"><path d="M45.5,151.909 C45.5,163.049 45.5,171.229 45.5,182.369" style="stroke:#181818;stroke-width:1;" fill="none" id="Sub1-to-Sub2"/><polygon points="45.5,187.369,49.5,178.369,45.5,182.369,41.5,178.369,45.5,187.369" fill="#181818" style="stroke:#181818;stroke-width:1;stroke-linejoin:miter;stroke-miterlimit:10;"/></g></g><g class="start_entity" data-qualified-name=".start." id="ent0002" data-source-line="1"><ellipse cx="141.5" cy="129" rx="10" ry="10" fill="#222" style="stroke:#222;stroke-width:1;"/></g><g class="entity" data-qualified-name="State1" id="ent0003" data-source-line="1"><rect x="111.5" y="312" width="60.476" height="50" fill="#F1F1F1" style="stroke:#181818;stroke-width:0.5;" rx="12.5" ry="12.5"/><line x1="111.5" y1="339.609" x2="171.976" y2="339.609" style="stroke:#181818;stroke-width:0.5;"/><text x="121.5" y="331.533" fill="#000" font-size="14" textLength="40.476">State1</text></g><g class="entity" data-qualified-name="State2" id="ent0005" data-source-line="2"><rect x="111.5" y="440" width="60.476" height="50" fill="#F1F1F1" style="stroke:#181818;stroke-width:0.5;" rx="12.5" ry="12.5"/><line x1="111.5" y1="467.609" x2="171.976" y2="467.609" style="stroke:#181818;stroke-width:0.5;"/><text x="121.5" y="459.533" fill="#000" font-size="14" textLength="40.476">State2</text></g><!--link *start* to State1--><g class="link" data-entity-1="ent0002" data-entity-2="ent0003" id="lnk4" data-source-line="1" data-link-type="dependency"><path d="M141.5,139.12 C141.5,169.25 141.5,261.31 141.5,306.91" style="stroke:#181818;stroke-width:1;" fill="none" id="*start*-to-State1"/><polygon points="141.5,311.91,145.5,302.91,141.5,306.91,137.5,302.91,141.5,311.91" fill="#181818" style="stroke:#181818;stroke-width:1;stroke-linejoin:miter;stroke-miterlimit:10;"/></g><!--link State1 to State2--><g class="link" data-entity-1="ent0003" data-entity-2="ent0005" id="lnk6" data-source-line="2" data-link-type="dependency"><path d="M141.5,362.29 C141.5,384.61 141.5,412.49 141.5,434.78" style="stroke:#181818;stroke-width:1;" fill="none" id="State1-to-State2"/><polygon points="141.5,439.78,145.5,430.78,141.5,434.78,137.5,430.78,141.5,439.78" fill="#181818" style="stroke:#181818;stroke-width:1;stroke-linejoin:miter;stroke-miterlimit:10;"/><text x="142.5" y="406.495" fill="#000" font-size="13" textLength="39.032">event1</text></g><?plantuml-src YzQALT3LjLC8BaaiIJNaWb084IC5AuNKijIy4aEkOX0V8cgiKCsbe10DqrgQP0ZaWYWOtuYh5W00?></g></svg>