<svg xmlns="http://www.w3.org/2000/svg" xmlns:xlink="http://www.w3.org/1999/xlink" version="1.1" data-diagram-type="SEQUENCE" style="width:274px;height:225px;background:#FFFFFF;" width="274px" height="225px" viewBox="0 0 274 225" zoomAndPan="magnify" preserveAspectRatio="none" contentStyleType="text/css"><?plantuml 1.2026.8?><defs/><g font-family="sans-serif" lengthAdjust="spacing"><g><title>App</title><rect x="25.955" y="42.609" width="8" height="139.406" fill="#000" fill-opacity="0"/><line x1="29.455" y1="42.609" x2="29.455" y2="182.016" style="stroke:#181818;stroke-width:0.5;stroke-dasharray:5,5;"/></g><g><title>Rte</title><rect x="242.538" y="42.609" width="8" height="139.406" fill="#000" fill-opacity="0"/><line x1="246.038" y1="42.609" x2="246.038" y2="182.016" style="stroke:#181818;stroke-width:0.5;stroke-dasharray:5,5;"/></g><rect x="10" y="10" width="38.91" height="31.609" fill="#E2E2F0" style="stroke:#181818;stroke-width:0.5;" rx="2.5" ry="2.5"/><text x="17" y="31.533" fill="#000" font-size="14" textLength="24.91">App</text><rect x="228.145" y="10" width="35.786" height="31.609" fill="#E2E2F0" style="stroke:#181818;stroke-width:0.5;" rx="2.5" ry="2.5"/><text x="235.145" y="31.533" fill="#000" font-size="14" textLength="21.786">Rte</text><rect x="10" y="182.016" width="38.91" height="31.609" fill="#E2E2F0" style="stroke:#181818;stroke-width:0.5;" rx="2.5" ry="2.5"/><text x="17" y="203.549" fill="#000" font-size="14" textLength="24.91">App</text><rect x="228.145" y="182.016" width="35.786" height="31.609" fill="#E2E2F0" style="stroke:#181818;stroke-width:0.5;" rx="2.5" ry="2.5"/><text x="235.145" y="203.549" fill="#000" font-size="14" textLength="21.786">Rte</text><polygon points="234.038,68.961,244.038,72.961,234.038,76.961,238.038,72.961" fill="#181818" style="stroke:#181818;stroke-width:1;stroke-linejoin:miter;stroke-miterlimit:10;"/><line x1="29.455" y1="72.961" x2="240.038" y2="72.961" style="stroke:#181818;stroke-width:1;"/><text x="36.455" y="68.104" fill="#000" font-size="13" textLength="30.348" font-weight="700">[010]</text><text x="70.803" y="68.104" fill="#000" font-size="13" textLength="148.814">Rte_Write_PortName(val)</text><polygon points="40.455,99.313,30.455,103.313,40.455,107.313,36.455,103.313" fill="#181818" style="stroke:#181818;stroke-width:1;stroke-linejoin:miter;stroke-miterlimit:10;"/><line x1="34.455" y1="103.313" x2="245.038" y2="103.313" style="stroke:#181818;stroke-width:1;stroke-dasharray:2,2;"/><text x="46.455" y="98.456" fill="#000" font-size="13" textLength="30.348" font-weight="700">[015]</text><text x="80.803" y="98.456" fill="#000" font-size="13" textLength="62.144">Rte_E_OK</text><polygon points="234.038,129.664,244.038,133.664,234.038,137.664,238.038,133.664" fill="#181818" style="stroke:#181818;stroke-width:1;stroke-linejoin:miter;stroke-miterlimit:10;"/><line x1="29.455" y1="133.664" x2="240.038" y2="133.664" style="stroke:#181818;stroke-width:1;"/><text x="36.455" y="128.808" fill="#000" font-size="13" textLength="30.348" font-weight="700">[020]</text><text x="70.803" y="128.808" fill="#000" font-size="13" textLength="158.234">Rte_Read_PortName(&amp;val)</text><polygon points="40.455,160.016,30.455,164.016,40.455,168.016,36.455,164.016" fill="#181818" style="stroke:#181818;stroke-width:1;stroke-linejoin:miter;stroke-miterlimit:10;"/><line x1="34.455" y1="164.016" x2="245.038" y2="164.016" style="stroke:#181818;stroke-width:1;stroke-dasharray:2,2;"/><text x="46.455" y="159.159" fill="#000" font-size="13" textLength="30.348" font-weight="700">[025]</text><text x="80.803" y="159.159" fill="#000" font-size="13" textLength="62.144">Rte_E_OK</text><?plantuml-src IomjoSyhpKrABL8mD50mLL2oIRABDZ0mY5NYAaWiAibCpYn8p2jHS2meGE47bQHo0SKKTEr0J0Kh41aVNfG990FoYqhy4dDJDSeISpIvGBAwG5KWnH1Lhl7-tfXwWr8JKn1QrV3e1G00?></g></svg>